<svg width="36" height="40" viewBox="0 0 36 40" fill="none" xmlns="http://www.w3.org/2000/svg">
<path d="M26 0H10C4.48 0 0 4.48 0 10V30C0 35.52 4.48 40 10 40H26C31.52 40 36 35.52 36 30V10C36 4.48 31.52 0 26 0ZM11.72 33.26C11.34 33.64 10.84 33.84 10.32 33.84C9.78 33.84 9.28 33.64 8.9 33.26C8.52 32.88 8.3 32.38 8.3 31.84C8.3 31.32 8.52 30.8 8.9 30.42C9.08 30.24 9.3 30.1 9.54 30C10.04 29.8 10.58 29.8 11.08 30C11.2 30.04 11.32 30.1 11.42 30.18C11.54 30.24 11.64 30.34 11.72 30.42C12.1 30.8 12.32 31.32 12.32 31.84C12.32 32.38 12.1 32.88 11.72 33.26ZM8.3 23.84C8.3 23.58 8.36 23.32 8.46 23.08C8.56 22.82 8.7 22.62 8.9 22.42C9.36 21.96 10.06 21.74 10.7 21.88C10.82 21.9 10.96 21.94 11.08 22C11.2 22.04 11.32 22.1 11.42 22.18C11.54 22.24 11.64 22.34 11.72 22.42C11.9 22.62 12.06 22.82 12.16 23.08C12.26 23.32 12.3 23.58 12.3 23.84C12.3 24.38 12.1 24.88 11.72 25.26C11.34 25.64 10.84 25.84 10.32 25.84C10.04 25.84 9.78 25.78 9.54 25.68C9.3 25.58 9.08 25.44 8.9 25.26C8.52 24.88 8.3 24.38 8.3 23.84ZM19.72 33.26C19.54 33.44 19.32 33.58 19.08 33.68C18.84 33.78 18.58 33.84 18.3 33.84C17.78 33.84 17.28 33.64 16.9 33.26C16.52 32.88 16.3 32.38 16.3 31.84C16.3 31.7 16.32 31.58 16.34 31.44C16.38 31.32 16.42 31.2 16.46 31.08C16.52 30.96 16.58 30.84 16.64 30.72C16.72 30.62 16.8 30.52 16.9 30.42C17.08 30.24 17.3 30.1 17.54 30C18.28 29.7 19.16 29.86 19.72 30.42C20.1 30.8 20.3 31.32 20.3 31.84C20.3 32.38 20.1 32.88 19.72 33.26ZM19.72 25.26C19.34 25.64 18.84 25.84 18.3 25.84C17.78 25.84 17.28 25.64 16.9 25.26C16.52 24.88 16.3 24.38 16.3 23.84C16.3 23.32 16.52 22.8 16.9 22.42C17.64 21.68 18.98 21.68 19.72 22.42C19.9 22.62 20.06 22.82 20.16 23.08C20.26 23.32 20.3 23.58 20.3 23.84C20.3 24.38 20.1 24.88 19.72 25.26ZM12 16.92C9.94 16.92 8.24 15.24 8.24 13.16V11.16C8.24 9.1 9.92 7.4 12 7.4H24C26.06 7.4 27.76 9.08 27.76 11.16V13.16C27.76 15.22 26.08 16.92 24 16.92H12ZM27.72 33.26C27.34 33.64 26.84 33.84 26.3 33.84C26.04 33.84 25.78 33.78 25.54 33.68C25.3 33.58 25.08 33.44 24.9 33.26C24.52 32.88 24.32 32.38 24.32 31.84C24.32 31.32 24.52 30.8 24.9 30.42C25.44 29.86 26.34 29.7 27.08 30C27.32 30.1 27.54 30.24 27.72 30.42C28.1 30.8 28.3 31.32 28.3 31.84C28.3 32.38 28.1 32.88 27.72 33.26ZM28.16 24.6C28.06 24.84 27.92 25.06 27.72 25.26C27.34 25.64 26.84 25.84 26.3 25.84C25.78 25.84 25.28 25.64 24.9 25.26C24.52 24.88 24.3 24.38 24.3 23.84C24.3 23.32 24.52 22.8 24.9 22.42C25.64 21.68 26.98 21.68 27.72 22.42C28.1 22.8 28.32 23.32 28.32 23.84C28.32 24.1 28.26 24.36 28.16 24.6Z" fill="#7B9B10"/>
</svg>
