<svg width="121" height="120" viewBox="0 0 121 120" fill="none" xmlns="http://www.w3.org/2000/svg">
<path d="M110.5 52.5V77.5C110.5 95 100.5 102.5 85.5 102.5H35.5C20.5 102.5 10.5 95 10.5 77.5V42.5C10.5 25 20.5 17.5 35.5 17.5H70.5" stroke="#303030" stroke-width="4" stroke-miterlimit="10" stroke-linecap="round" stroke-linejoin="round"/>
<path d="M35.5 45L51.15 57.5C56.3 61.6 64.75 61.6 69.9 57.5L75.8 52.8" stroke="#303030" stroke-width="4" stroke-miterlimit="10" stroke-linecap="round" stroke-linejoin="round"/>
<path d="M98 40C104.904 40 110.5 34.4036 110.5 27.5C110.5 20.5964 104.904 15 98 15C91.0964 15 85.5 20.5964 85.5 27.5C85.5 34.4036 91.0964 40 98 40Z" stroke="#303030" stroke-width="4" stroke-miterlimit="10" stroke-linecap="round" stroke-linejoin="round"/>
</svg>
